#!OML:ASF F:\VICON\USERDATA\INSTALL\rory3\rory3.ASF
:FULLY-SPECIFIED
:DEGREES
99
root 0.39588960158408887 17.555351598189834 19.666903685549563 -1.5907688308979742 -0.7058522088213601 1.804174769723041
lfemur 6.830892657793868 -1.829692356090276 -26.070181713375696
ltibia 35.56492197414262
lfoot -4.104846939879406 -3.338112150495376
ltoes -13.741338917569566
rfemur -25.541435634531798 8.135225598656806 18.02000766943696
rtibia 19.97219651209287
rfoot -5.293171513629751 -11.62847395814344
rtoes 3.8220925381193793
lowerback 10.427771774966146 -0.49056626167300166 -3.4587080612157877
upperback 0.9258995474471756 -0.905334244379925 1.264112512371321
thorax -4.717130001164853 -0.441762849632778 2.9414513567460387
lowerneck -16.45067806156524 -2.8972577408685694 -3.055345428948921
upperneck 21.0326875708236 -3.621372959358193 1.7539059615561503
head 9.44708995817367 -1.707187411959063 0.5071927333047394
lclavicle -1.9555645287842385e-15 9.04768249272188e-16
lhumerus -29.31026297178787 -2.0503899430992902 83.28694630547066
lradius 32.193289386241396
lwrist 7.941738869251976
lhand -26.79266389542632 24.150561228961177
lfingers 7.12502
lthumb -0.4513557581611803 53.71780828293257
rclavicle -1.9533566091236292e-15 9.061323182623672e-16
rhumerus -30.146959470943067 -19.138913364608715 -78.60911081208978
rradius 22.253653477208186
rwrist 7.57925319788014
rhand -16.801064722670276 23.018545947939337
rfingers 7.12502
rthumb 9.39403313989256 -6.769702017779863
100
root 0.2824889875771155 17.628324074765906 19.222838488187556 -1.5317014060569307 0.710439312866173 1.4519819347593108
lfemur 7.670496505808174 -1.8777998245759489 -25.258608889625368
ltibia 39.313230818717386
lfoot -4.010662716896165 -4.103534768197936
ltoes -14.032664645719034
rfemur -25.45543963300975 6.718817691723226 19.25621845244072
rtibia 21.183252944199026
rfoot -4.733660178220745 -9.424306206252814
rtoes 4.823128797816465
lowerback 9.694071009038849 -0.8327483616970904 -2.9825276181905283
upperback 0.940594500825928 -1.1125924494517831 1.5954668771736258
thorax -4.557720663755679 -0.533040831970222 3.0634406567128103
lowerneck -16.550751651240784 -2.8704418460166554 -2.996667996993537
upperneck 20.998188203274882 -3.576720760072482 1.700853525929611
head 9.442023453297312 -1.6894531767588283 0.5231169332309312
lclavicle -1.956760236039739e-15 9.03661157207976e-16
lhumerus -29.490258479473773 -2.2478575507064766 83.27909258632265
lradius 32.134161436893955
lwrist 7.8451238823855824
lhand -26.906842579031807 24.055437857886446
lfingers 7.12502
lthumb -0.506521409886965 53.75216895811078
rclavicle -1.953415218088276e-15 9.0622256263843e-16
rhumerus -30.430844915086983 -19.5714496340851 -78.47109668928547
rradius 22.172957142099655
rwrist 7.613073978014972
rhand -16.787012053785148 23.082696438186993
rfingers 7.12502
rthumb 9.418881259872508 -6.640190616728751
101
root 0.101848432445235 17.63000639824129 19.332530664790497 -1.897916765125623 1.723256441300879 0.10311448842460402
lfemur 7.140473596137339 -1.7426561621421777 -23.236118369869722
ltibia 44.803291756047884
lfoot -2.775427168494831 -3.876462301108041
ltoes -12.769676096126432
rfemur -25.29450436933953 6.5233652023864686 20.807399216813362
rtibia 23.48417131045761
rfoot -3.8338242362495585 -7.693505576692086
rtoes 6.034322749973295
lowerback 9.208972686923026 -1.2305333954904616 -1.7607010546006523
upperback 0.7832244887658477 -1.3670033100482515 2.074047378397041
thorax -4.527746167509893 -0.6612506352837695 3.1040871479289236
lowerneck -16.66508366939828 -2.8425366314510714 -2.9567133011286977
upperneck 21.01037018766576 -3.522066164876145 1.6225334549934267
head 9.456318697582176 -1.6684550580314346 0.5277651232496057
lclavicle -1.9574806340176594e-15 9.029986615263253e-16
lhumerus -29.670453381887004 -2.196642173221413 83.3121616210076
lradius 31.9915944928922
lwrist 7.7482948974265256
lhand -26.990353258333947 23.93868477706124
lfingers 7.12502
lthumb -0.5348159134354329 53.761861446526126
rclavicle -1.9538670060051465e-15 9.059594145534283e-16
rhumerus -30.691517858101022 -19.889061023048342 -78.46670252416577
rradius 22.224877639104786
rwrist 7.467694814831454
rhand -16.774149745545834 23.043581523546738
rfingers 7.12502
rthumb 9.434585845172682 -6.6085395243392195
102
root -0.060660629881142736 17.52277657968284 20.316723291047666 -2.468999450429588 1.8338539019083986 -1.1290848296035236
lfemur 5.263706479887272 -1.1568633354862703 -21.161923250100756
ltibia 51.54401405111385
lfoot -3.353533522732631 -4.397636181240743
ltoes -14.073717807406354
rfemur -24.885382345578414 6.650260381813826 22.19027354911539
rtibia 25.368504829004372
rfoot -3.3900014713011926 -6.314181074689624
rtoes 7.124065786283856
lowerback 9.566264165272264 -1.2403461771263742 -0.6448124182010393
upperback 0.5999329487821403 -1.2456877216056434 2.4970864211919324
thorax -4.652022823330737 -0.6231281900434449 2.940950675458954
lowerneck -16.72076229153112 -2.815709939102283 -2.9457374478647953
upperneck 21.04425525295604 -3.464227976231459 1.53470320279752
head 9.474350867521343 -1.647167031764239 0.5282834016280489
lclavicle -1.956797119911529e-15 9.03624526124928e-16
lhumerus -30.248216602890285 -2.1488865360108544 83.18923132872995
lradius 31.93086482067552
lwrist 7.631766481310828
lhand -27.013222200418546 23.8999629399709
lfingers 7.12502
lthumb -0.5238055473673221 53.7952524197528
rclavicle -1.954434612482266e-15 9.054752503348452e-16
rhumerus -30.77305518199165 -19.96905761105573 -78.59802270840774
rradius 22.285279721231046
rwrist 7.285121047800011
rhand -16.76668044928713 22.9105389676338
rfingers 7.12502
rthumb 9.44053876937573 -6.681485668246054
